<svg xmlns="http://www.w3.org/2000/svg" version="1.1" id="logo" viewBox="50 250 620 220">
<style>* { fill: #888;}</style>
<defs>
  <g id="left-side">
    <path id="chain-link" fill="currentColor" d="M180,296 C200,296 220,296 240,296 C258,296 274,301 288,311 C306,324 316,343 315,366 C315,376 311,386 306,395 C304,397 303,398 301,396 C287,387 277,376 274,359 C272,347 264,340 249,337 C244,336 239,336 234,336 C204,336 175,336 145,336 C136,336 128,338 121,341 C112,346 106,352 106,363 C106,373 111,380 120,384 C129,388 138,390 147,390 C169,390 191,390 213,390 C217,390 219,391 221,394 C226,407 234,418 243,429 C242,430 241,430 240,430 C206,430 173,431 140,430 C116,430 96,421 81,404 C57,377 61,334 92,311 C107,301 123,296 141,296 C154,296 167,296 180,296z"/>
    <path id="arrow" fill="currentColor" d="M287,447 C262,434 241,416 230,389 C225,377 224,364 225,350 C225,347 227,346 229,346 C240,346 250,346 259,352 C261,353 263,356 263,358 C265,376 275,389 289,400 C305,413 324,420 345,424 C348,425 352,426 355,426 C359,426 360,425 360,421 C360,416 360,411 360,406 C360,404 359,402 361,400 C388,415 415,430 441,446 C441,446 441,447 441,448 C414,463 388,479 360,495 C360,487 359,480 360,473 C360,468 359,466 354,466 C330,464 308,458 287,447z"/>
  </g>
</defs>
<use href="#left-side"/>
<use href="#left-side" transform="rotate(180 360 360)"/>
</svg>
